<?xml version="1.0" encoding="UTF-8" standalone="no"?>
<!-- Generator: Gravit.io -->

<svg
   style="isolation:isolate"
   viewBox="0 0 48 48"
   width="48"
   height="48"
   version="1.1"
   id="svg88"
   sodipodi:docname="mail.svg"
   inkscape:version="1.1 (c4e8f9ed74, 2021-05-24)"
   xmlns:inkscape="http://www.inkscape.org/namespaces/inkscape"
   xmlns:sodipodi="http://sodipodi.sourceforge.net/DTD/sodipodi-0.dtd"
   xmlns="http://www.w3.org/2000/svg"
   xmlns:svg="http://www.w3.org/2000/svg">
  <defs
     id="defs92" />
  <sodipodi:namedview
     id="namedview90"
     pagecolor="#505050"
     bordercolor="#ffffff"
     borderopacity="1"
     inkscape:pageshadow="0"
     inkscape:pageopacity="0"
     inkscape:pagecheckerboard="1"
     showgrid="false"
     inkscape:zoom="17.0625"
     inkscape:cx="23.970696"
     inkscape:cy="24"
     inkscape:window-width="2560"
     inkscape:window-height="1385"
     inkscape:window-x="0"
     inkscape:window-y="0"
     inkscape:window-maximized="1"
     inkscape:current-layer="svg88" />
  <linearGradient
     id="_lgradient_5"
     x1="0"
     y1="0.5"
     x2="1"
     y2="0.5"
     gradientTransform="matrix(44,0,0,22,2,20)"
     gradientUnits="userSpaceOnUse">
    <stop
       offset="0%"
       stop-opacity="1"
       style="stop-color:rgb(242,55,239)"
       id="stop74" />
    <stop
       offset="98.69565217391305%"
       stop-opacity="1"
       style="stop-color:rgb(252,82,82)"
       id="stop76" />
  </linearGradient>
  <path
     d="m 42,22 v 0 c 0,-1.104 0.896,-2 2,-2 v 0 c 1.104,0 2,0.896 2,2 v 0 15 c 0,2.76 -2.24,5 -5,5 H 7 C 4.24,42 2,39.76 2,37 v -15 0 c 0,-1.104 0.896,-2 2,-2 v 0 c 1.104,0 2,0.896 2,2 v 0 13 c 0,1.656 1.344,3 3,3 h 30 c 1.656,0 3,-1.344 3,-3 z"
     fill="url(#_lgradient_5)"
     id="path79"
     style="fill:url(#_lgradient_5)" />
  <linearGradient
     id="_lgradient_6"
     x1="0"
     y1="0.5"
     x2="1"
     y2="0.5"
     gradientTransform="matrix(44,0,0,25.56,2,6)"
     gradientUnits="userSpaceOnUse">
    <stop
       offset="0%"
       stop-opacity="1"
       style="stop-color:rgb(242,55,239)"
       id="stop81" />
    <stop
       offset="98.69565217391305%"
       stop-opacity="1"
       style="stop-color:rgb(252,82,82)"
       id="stop83" />
  </linearGradient>
  <path
     d="m 4,6 h 40 c 1.104,0 2,0.896 2,2 v 5.04 c 0,1.104 -0.687,2.575 -1.534,3.283 L 27.835,30.232 c -2.116,1.771 -5.554,1.771 -7.67,0 L 3.534,16.323 C 2.687,15.615 2,14.144 2,13.04 V 8 C 2,6.896 2.896,6 4,6 Z m 3,4 h 34 c 0.552,0 1,0.448 1,1 v 0.96 c 0,0.552 -0.339,1.293 -0.756,1.655 l -14.977,12.98 c -1.251,1.085 -3.283,1.085 -4.534,0 L 6.756,13.615 C 6.339,13.253 6,12.512 6,11.96 V 11 c 0,-0.552 0.448,-1 1,-1 z"
     fill-rule="evenodd"
     fill="url(#_lgradient_6)"
     id="path86"
     style="fill:url(#_lgradient_6)" />
</svg>
